<svg width="76" height="51" viewBox="0 0 76 51" fill="none" xmlns="http://www.w3.org/2000/svg">
<path d="M0.135742 37.9369H4.10501C5.46414 37.8387 6.82484 38.1052 8.04646 38.709C8.45265 38.9705 8.78083 39.3366 8.99646 39.7689C9.2121 40.2012 9.30721 40.6836 9.27179 41.1654C9.29992 41.832 9.11208 42.4899 8.73622 43.0411C8.56969 43.2762 8.35751 43.4754 8.11233 43.6268C7.86716 43.7781 7.59401 43.8786 7.30918 43.9221V44.0091C7.99747 44.1174 8.62095 44.4776 9.05849 45.0199C9.4415 45.6034 9.62943 46.2935 9.59522 46.9906C9.61961 47.5122 9.5178 48.032 9.29843 48.5059C9.07906 48.9797 8.7486 49.3937 8.33512 49.7126C7.33532 50.4127 6.1294 50.7568 4.91069 50.6898H0.135742V37.9369ZM2.84026 42.9889H4.41105C4.96337 43.0313 5.51616 42.9129 6.0027 42.6481C6.17348 42.5176 6.30828 42.3458 6.39446 42.1489C6.48065 41.952 6.51538 41.7365 6.49539 41.5225C6.51203 41.3148 6.47078 41.1066 6.37624 40.921C6.28169 40.7354 6.13754 40.5796 5.95981 40.471C5.43031 40.2225 4.84627 40.1127 4.26267 40.1522H2.84026V42.9889ZM2.84026 45.1358V48.4594H4.60233C5.18417 48.5049 5.76449 48.3543 6.25078 48.0317C6.4353 47.87 6.57957 47.6675 6.67214 47.4403C6.76471 47.2131 6.80302 46.9675 6.78403 46.7229C6.78403 45.6649 6.02782 45.1354 4.51539 45.1347L2.84026 45.1358Z" fill="white"/>
<path d="M18.8446 50.6924L18.4864 49.4451H18.3473C18.0531 49.907 17.6299 50.2726 17.1301 50.4965C16.569 50.7518 15.9578 50.8786 15.3414 50.8675C14.8693 50.9025 14.395 50.8388 13.9489 50.6803C13.5028 50.5218 13.0946 50.2721 12.7505 49.947C12.1267 49.2113 11.814 48.2616 11.8787 47.2993V40.9396H14.545V46.6362C14.5067 47.1899 14.6377 47.7422 14.9206 48.2197C15.0598 48.4006 15.2421 48.5436 15.451 48.6358C15.6598 48.7279 15.8883 48.7662 16.1158 48.7472C16.4263 48.7736 16.7384 48.7188 17.0213 48.5882C17.3042 48.4575 17.5483 48.2554 17.7294 48.0018C18.1214 47.2392 18.2936 46.3827 18.2268 45.5279V40.9385H20.893V50.6924H18.8446Z" fill="white"/>
<path d="M30.4801 47.7957C30.506 48.233 30.4244 48.6699 30.2426 49.0684C30.0607 49.4669 29.7841 49.8148 29.4368 50.0818C28.5078 50.6695 27.415 50.9446 26.3184 50.8666C25.7105 50.8749 25.1032 50.8268 24.5042 50.7228C24.0221 50.6323 23.5511 50.4905 23.0992 50.2997V48.0971C23.6362 48.3432 24.1956 48.5373 24.7697 48.6768C25.3033 48.8208 25.8527 48.8987 26.4054 48.9086C27.3706 48.9086 27.8533 48.6296 27.8533 48.0716C27.8572 47.978 27.8422 47.8846 27.8091 47.7969C27.776 47.7093 27.7256 47.6292 27.6608 47.5616C27.4625 47.3819 27.2391 47.232 26.9977 47.1164C26.684 46.951 26.2651 46.7578 25.7411 46.5368C25.1575 46.3127 24.6026 46.02 24.088 45.665C23.7601 45.4263 23.4965 45.11 23.3206 44.7446C23.1498 44.3417 23.0679 43.9068 23.0806 43.4694C23.0642 43.0764 23.1481 42.6857 23.3243 42.334C23.5006 41.9824 23.7634 41.6814 24.088 41.4593C24.947 40.9394 25.9448 40.6954 26.9467 40.7602C28.1321 40.7625 29.3025 41.0245 30.3758 41.5277L29.5724 43.4474C29.084 43.2379 28.6273 43.0664 28.2022 42.9327C27.7818 42.7998 27.3435 42.7322 26.9027 42.7321C26.1175 42.7321 25.7249 42.9447 25.7249 43.3697C25.7302 43.4966 25.7678 43.6201 25.8341 43.7284C25.9004 43.8367 25.9933 43.9263 26.104 43.9888C26.6335 44.2964 27.1895 44.5564 27.7652 44.7654C28.3567 44.9844 28.9192 45.2748 29.4403 45.6303C29.7728 45.8717 30.042 46.1898 30.2251 46.5577C30.4021 46.9459 30.4893 47.3691 30.4801 47.7957Z" fill="white"/>
<path d="M32.4454 38.4177C32.4454 37.5513 32.9281 37.1182 33.8933 37.1182C34.8586 37.1182 35.3416 37.5513 35.3424 38.4177C35.353 38.5948 35.3263 38.7722 35.264 38.9383C35.2017 39.1045 35.1052 39.2557 34.9807 39.3822C34.6775 39.6346 34.288 39.7593 33.8945 39.73C32.9285 39.7276 32.4454 39.2902 32.4454 38.4177ZM35.2195 50.693H32.5532V40.9391H35.2195V50.693Z" fill="white"/>
<path d="M47.0126 50.693H44.3463V44.9965C44.3846 44.4429 44.254 43.8907 43.9718 43.413C43.8326 43.2322 43.6502 43.0892 43.4414 42.997C43.2326 42.9049 43.0041 42.8665 42.7767 42.8855C42.4661 42.8591 42.1541 42.914 41.8712 43.0447C41.5883 43.1754 41.3442 43.3774 41.163 43.6309C40.7713 44.3935 40.5991 45.25 40.6657 46.1047V50.6942H37.9994V40.9403H40.0327L40.3898 42.1876H40.5382C40.8325 41.7185 41.2587 41.3467 41.7635 41.1188C42.3249 40.8695 42.9345 40.7471 43.5487 40.7606C44.0195 40.727 44.4921 40.7915 44.9367 40.9499C45.3812 41.1084 45.7881 41.3573 46.1315 41.681C46.7622 42.4169 47.0786 43.3711 47.0126 44.338V50.693Z" fill="white"/>
<path d="M54.1691 50.866C53.5 50.9059 52.8297 50.8118 52.1975 50.5893C51.5652 50.3667 50.9838 50.0202 50.4873 49.5699C50.0263 49.0795 49.6707 48.4997 49.4426 47.8665C49.2145 47.2332 49.1187 46.5599 49.1611 45.8881C49.0731 44.5148 49.5112 43.1594 50.3864 42.0974C50.8217 41.6434 51.35 41.2888 51.935 41.0579C52.5201 40.827 53.1481 40.7253 53.7761 40.7596C54.3648 40.7244 54.9544 40.8108 55.5083 41.0134C56.0622 41.2161 56.5683 41.5306 56.9953 41.9374C57.3943 42.3758 57.7017 42.8895 57.8996 43.4482C58.0974 44.007 58.1818 44.5996 58.1476 45.1914V46.4828H51.8575C51.8473 47.1375 52.0879 47.7712 52.5299 48.2542C52.7647 48.4747 53.0422 48.645 53.3452 48.7544C53.6482 48.8638 53.9704 48.9102 54.292 48.8906C54.8524 48.8936 55.4114 48.8321 55.9578 48.7074C56.5233 48.5719 57.073 48.3776 57.5981 48.1278V50.1866C57.1248 50.422 56.6235 50.5961 56.1062 50.7048C55.4678 50.8256 54.8186 50.8796 54.1691 50.866ZM53.7935 42.6469C53.5466 42.6336 53.2998 42.6748 53.0706 42.7676C52.8414 42.8603 52.6354 43.0024 52.4673 43.1836C52.1192 43.6153 51.9258 44.1512 51.9178 44.7057H55.6518C55.6765 44.1518 55.4928 43.6088 55.137 43.1836C54.9646 43.0032 54.7554 42.8619 54.5236 42.7695C54.2918 42.6771 54.0427 42.6357 53.7935 42.648V42.6469Z" fill="white"/>
<path d="M67.1152 47.7964C67.141 48.2337 67.0593 48.6706 66.8775 49.069C66.6956 49.4675 66.419 49.8154 66.0719 50.0825C65.1428 50.6702 64.0501 50.9452 62.9535 50.8673C62.3456 50.8756 61.7383 50.8275 61.1393 50.7235C60.6572 50.633 60.1861 50.4912 59.7342 50.3004V48.0978C60.2713 48.344 60.8307 48.538 61.4047 48.6774C61.9384 48.8215 62.4878 48.8994 63.0404 48.9093C64.0057 48.9093 64.4887 48.6303 64.4895 48.0723C64.4934 47.9787 64.4784 47.8853 64.4453 47.7976C64.4123 47.71 64.3618 47.6299 64.2971 47.5623C64.0985 47.3828 63.8752 47.2329 63.634 47.1171C63.3202 46.9517 62.9013 46.7585 62.3773 46.5375C61.7937 46.3133 61.2388 46.0207 60.7242 45.6657C60.3964 45.427 60.1327 45.1107 59.9568 44.7453C59.786 44.3424 59.7041 43.9075 59.7169 43.4701C59.7005 43.0771 59.7843 42.6864 59.9606 42.3347C60.1368 41.9831 60.3996 41.682 60.7242 41.46C61.5816 40.9362 62.579 40.6882 63.5818 40.7493C64.7668 40.7518 65.9368 41.0137 67.0097 41.5167L66.2075 43.4365C65.7191 43.227 65.2623 43.0555 64.8373 42.9218C64.4169 42.7889 63.9786 42.7213 63.5378 42.7212C62.7526 42.7212 62.3599 42.9337 62.3599 43.3588C62.3655 43.4858 62.4033 43.6093 62.4698 43.7176C62.5364 43.8259 62.6294 43.9155 62.7402 43.9778C63.2702 44.2855 63.8265 44.5455 64.4025 44.7546C64.9945 44.9769 65.5571 45.2708 66.0777 45.6298C66.4102 45.8712 66.6794 46.1893 66.8625 46.5572C67.0387 46.946 67.1251 47.3696 67.1152 47.7964Z" fill="white"/>
<path d="M75.9954 47.7964C76.0212 48.2336 75.9396 48.6705 75.7577 49.069C75.5759 49.4675 75.2993 49.8154 74.9521 50.0824C74.0231 50.6701 72.9303 50.9451 71.8337 50.8672C71.2259 50.8756 70.6185 50.8274 70.0195 50.7235C69.5374 50.6329 69.0664 50.4911 68.6145 50.3004V48.0978C69.1515 48.3438 69.7109 48.5379 70.285 48.6774C70.8187 48.8214 71.368 48.8993 71.9207 48.9093C72.886 48.9093 73.3686 48.6303 73.3686 48.0723C73.3727 47.9788 73.3578 47.8854 73.325 47.7977C73.2921 47.7101 73.2419 47.63 73.1773 47.5622C72.9788 47.3828 72.7555 47.2329 72.5142 47.1171C72.1997 46.9517 71.7808 46.7585 71.2576 46.5374C70.674 46.3132 70.1191 46.0206 69.6045 45.6657C69.2768 45.4268 69.0131 45.1106 68.8371 44.7452C68.6663 44.3424 68.5844 43.9074 68.5971 43.4701C68.5807 43.0771 68.6646 42.6863 68.8408 42.3347C69.0171 41.983 69.2799 41.682 69.6045 41.4599C70.4619 40.9363 71.4593 40.6883 72.462 40.7493C73.6474 40.7516 74.8179 41.0135 75.8911 41.5167L75.0877 43.4364C74.5993 43.227 74.1426 43.0554 73.7175 42.9217C73.2968 42.7888 72.8581 42.7211 72.4169 42.7212C71.6317 42.7212 71.239 42.9337 71.239 43.3588C71.2445 43.4856 71.2821 43.6091 71.3484 43.7174C71.4147 43.8257 71.5076 43.9153 71.6181 43.9778C72.1481 44.2855 72.7044 44.5455 73.2805 44.7545C73.872 44.9734 74.4346 45.2638 74.9556 45.6193C75.2882 45.8605 75.5575 46.1787 75.7404 46.5467C75.9192 46.9385 76.0064 47.3659 75.9954 47.7964Z" fill="white"/>
<path d="M26.2814 31.4375H0V33.2865H26.2814V31.4375Z" fill="white"/>
<path d="M26.2814 29.6699H0V31.5189H26.2814V29.6699Z" fill="white"/>
<path d="M75.9526 31.4375H49.6713V33.2865H75.9526V31.4375Z" fill="white"/>
<path d="M75.9526 29.6699H49.6713V31.5189H75.9526V29.6699Z" fill="white"/>
<path d="M75.3906 6.98206C75.0455 5.99697 74.4027 5.14354 73.5511 4.53997C72.6996 3.93639 71.6814 3.61255 70.6376 3.61328H70.5924C69.9142 3.61254 69.2429 3.7493 68.6191 4.0153C67.9952 4.28129 67.4318 4.671 66.9628 5.16088C66.494 4.67109 65.9307 4.28142 65.3071 4.01543C64.6834 3.74943 64.0123 3.61263 63.3343 3.61328H63.2891C62.0843 3.61201 60.9194 4.0445 60.0073 4.83165V4.44678C59.9944 4.25989 59.9112 4.08483 59.7744 3.95684C59.6376 3.82886 59.4573 3.75746 59.27 3.75703H55.9082C55.8104 3.75703 55.7135 3.77632 55.6231 3.81379C55.5327 3.85126 55.4507 3.90619 55.3815 3.97542C55.3124 4.04465 55.2576 4.12683 55.2203 4.21726C55.1829 4.30769 55.1638 4.40459 55.1639 4.50243V22.7884C55.1639 22.9858 55.2424 23.1751 55.3819 23.3147C55.5215 23.4543 55.7108 23.5327 55.9082 23.5327H59.27C59.4496 23.5323 59.623 23.467 59.7581 23.3487C59.8932 23.2304 59.9809 23.0672 60.005 22.8893V9.76542C60.005 9.72137 60.005 9.67732 60.005 9.63327C60.029 9.33692 60.1597 9.05935 60.3729 8.85212C60.5861 8.64488 60.8673 8.52207 61.1642 8.50647H61.7868C62.0455 8.52467 62.2927 8.62041 62.4962 8.78122C62.6422 8.89995 62.7593 9.0504 62.8384 9.22114C62.9175 9.39189 62.9567 9.57843 62.953 9.76658L62.9657 22.8267C62.9657 23.0242 63.0441 23.2136 63.1836 23.3534C63.3232 23.4931 63.5125 23.5718 63.7099 23.5721H67.0718C67.2637 23.5732 67.4486 23.5002 67.5879 23.3682C67.7273 23.2362 67.8102 23.0555 67.8195 22.8638V9.75151C67.8151 9.54428 67.863 9.33928 67.9589 9.1555C68.0547 8.97171 68.1954 8.81507 68.3678 8.70007C68.5536 8.58007 68.7664 8.50835 68.9869 8.4914H69.6082C69.9284 8.50821 70.2294 8.64929 70.4472 8.88462C70.665 9.11995 70.7824 9.43096 70.7744 9.75151L70.7883 22.7942C70.7883 22.9916 70.8667 23.1809 71.0063 23.3205C71.1459 23.4601 71.3352 23.5385 71.5326 23.5385H74.8944C74.9922 23.5386 75.0891 23.5195 75.1795 23.4822C75.27 23.4448 75.3521 23.39 75.4214 23.3209C75.4906 23.2518 75.5455 23.1697 75.583 23.0793C75.6205 22.9889 75.6398 22.8921 75.6398 22.7942V8.76731C75.6696 8.16254 75.583 7.55767 75.3847 6.98554" fill="white"/>
<path d="M52.595 3.80582H50.6695V0.683958C50.67 0.594401 50.6528 0.505634 50.6188 0.422748C50.5849 0.339862 50.535 0.264486 50.4719 0.200944C50.4087 0.137402 50.3337 0.0869432 50.2511 0.0524604C50.1684 0.0179776 50.0798 0.000151398 49.9902 0C49.9473 0.000504153 49.9045 0.00555635 49.8627 0.0150708C47.7262 0.594696 48.1563 3.55774 44.2577 3.81045H43.8786C43.824 3.81056 43.7696 3.81678 43.7163 3.829C43.552 3.86628 43.4051 3.95827 43.2998 4.08989C43.1945 4.22151 43.137 4.38497 43.1367 4.55353V7.91536C43.1367 8.11285 43.2151 8.30227 43.3546 8.44202C43.4942 8.58178 43.6835 8.66045 43.881 8.66076H45.9131V22.9369C45.913 23.0336 45.9319 23.1293 45.9687 23.2187C46.0056 23.3081 46.0597 23.3893 46.1279 23.4578C46.1962 23.5262 46.2772 23.5806 46.3665 23.6177C46.4557 23.6549 46.5514 23.6741 46.6481 23.6742H49.9775C50.1728 23.6739 50.36 23.5961 50.4981 23.4579C50.6361 23.3196 50.7136 23.1323 50.7136 22.9369V8.66192H52.5997C52.6974 8.66177 52.7942 8.64236 52.8844 8.60482C52.9746 8.56728 53.0566 8.51233 53.1256 8.44312C53.1946 8.3739 53.2493 8.29177 53.2865 8.20141C53.3238 8.11106 53.3429 8.01425 53.3428 7.91652V4.55469C53.3428 4.35762 53.2645 4.16861 53.1251 4.02925C52.9858 3.8899 52.7968 3.81161 52.5997 3.81161" fill="white"/>
<path d="M40.4816 3.80542H37.1198C36.9226 3.80542 36.7335 3.88367 36.5939 4.02299C36.4544 4.16231 36.3758 4.35131 36.3755 4.54849V11.5121C36.3725 11.719 36.2883 11.9163 36.141 12.0616C35.9937 12.2069 35.7953 12.2885 35.5884 12.2888H34.1764C34.0728 12.2888 33.9702 12.2684 33.8745 12.2287C33.7788 12.189 33.6918 12.1308 33.6186 12.0575C33.5454 11.9842 33.4874 11.8972 33.4478 11.8014C33.4083 11.7056 33.388 11.603 33.3881 11.4994L33.3731 4.54386C33.3728 4.34668 33.2942 4.15767 33.1547 4.01835C33.0151 3.87903 32.826 3.80078 32.6288 3.80078H29.267C29.1693 3.80063 29.0725 3.81973 28.9821 3.85699C28.8918 3.89425 28.8096 3.94894 28.7404 4.01794C28.6712 4.08694 28.6162 4.1689 28.5787 4.25914C28.5412 4.34938 28.5218 4.44613 28.5216 4.54386V12.174C28.4945 12.833 28.6042 13.4905 28.8437 14.105C29.0832 14.7195 29.4474 15.2777 29.9133 15.7446C30.3791 16.2114 30.9366 16.5768 31.5506 16.8176C32.1646 17.0584 32.8218 17.1694 33.4809 17.1437C33.4809 17.1437 35.6568 17.1437 35.724 17.1577C35.9161 17.1775 36.0941 17.2675 36.2239 17.4105C36.3537 17.5535 36.4262 17.7394 36.4273 17.9325C36.4285 18.1256 36.3583 18.3124 36.2302 18.4569C36.1021 18.6014 35.9252 18.6936 35.7333 18.7157L35.6777 18.725L30.7532 18.7435C30.5558 18.7435 30.3665 18.8219 30.2269 18.9615C30.0873 19.1011 30.0089 19.2904 30.0089 19.4878V22.8496C30.0089 23.047 30.0873 23.2363 30.2269 23.3758C30.3665 23.5154 30.5558 23.5938 30.7532 23.5938H36.2631C36.9223 23.6204 37.5798 23.5102 38.1943 23.2702C38.8088 23.0301 39.367 22.6653 39.8335 22.1989C40.3001 21.7324 40.665 21.1744 40.9052 20.5599C41.1454 19.9455 41.2558 19.288 41.2293 18.6287V4.54849C41.2293 4.45081 41.21 4.35409 41.1726 4.26386C41.1352 4.17363 41.0804 4.09166 41.0113 4.02265C40.9421 3.95363 40.8601 3.89892 40.7698 3.86165C40.6795 3.82437 40.5828 3.80526 40.4851 3.80542" fill="white"/>
<path d="M8.1892 3.80489H0.830284C0.636589 3.80489 0.450824 3.88184 0.313861 4.0188C0.176898 4.15576 0.0999512 4.34153 0.0999512 4.53522V7.83213C0.0993327 7.83636 0.0993327 7.84065 0.0999512 7.84488C0.0999512 7.86807 0.0999512 7.88314 0.0999512 7.90053V22.8259C0.094169 23.0143 0.161961 23.1976 0.288973 23.337C0.415986 23.4763 0.592244 23.5608 0.780429 23.5724H4.21066C4.40804 23.5724 4.59734 23.494 4.73691 23.3544C4.87648 23.2149 4.95489 23.0256 4.95489 22.8282L4.96765 17.7101H8.1892C8.79789 17.7394 9.40598 17.6411 9.97441 17.4215C10.5428 17.2018 11.059 16.8657 11.4898 16.4347C11.9206 16.0037 12.2565 15.4873 12.4759 14.9187C12.6952 14.3502 12.7933 13.7421 12.7636 13.1334V8.38045C12.7934 7.77143 12.6955 7.16292 12.4762 6.59395C12.257 6.02499 11.9213 5.50813 11.4905 5.07654C11.0598 4.64495 10.5436 4.30816 9.97511 4.08777C9.40659 3.86738 8.79828 3.76826 8.1892 3.79678V3.80489ZM7.89359 9.96631V12.0437C7.89359 12.2529 7.81058 12.4535 7.66278 12.6015C7.51498 12.7495 7.31447 12.8328 7.1053 12.8331H4.96765V8.68302H7.1053C7.31447 8.68333 7.51498 8.76664 7.66278 8.91465C7.81058 9.06267 7.89359 9.26329 7.89359 9.47247V9.96631Z" fill="white"/>
<path d="M21.3274 3.82457H16.6568C16.4655 3.8186 16.2796 3.88828 16.1394 4.0185C15.9992 4.14871 15.916 4.32895 15.9079 4.52012V5.82892V5.85558C15.9079 5.86369 15.9079 5.87297 15.9079 5.87297V7.67792C15.9154 7.88118 16.0033 8.07317 16.1521 8.2118C16.3009 8.35043 16.4987 8.42441 16.702 8.41752H21.15C21.3265 8.44067 21.4896 8.52421 21.6116 8.65396C21.7335 8.78371 21.8067 8.95167 21.8189 9.1293V9.56286C21.8086 9.73645 21.738 9.90099 21.6193 10.028C21.5005 10.155 21.3411 10.2365 21.1686 10.2584H18.966C18.3234 10.2108 17.6779 10.2965 17.0701 10.5103C16.4623 10.7241 15.9052 11.0613 15.4339 11.5007C14.9626 11.94 14.5873 12.4721 14.3315 13.0635C14.0757 13.6549 13.945 14.2928 13.9476 14.9371V18.8577C13.9123 19.4822 14.0102 20.107 14.2348 20.6907C14.4594 21.2744 14.8056 21.8037 15.2503 22.2434C15.6951 22.6832 16.2283 23.0233 16.8145 23.2412C17.4008 23.4591 18.0267 23.5499 18.6507 23.5075H24.7576C25.2665 23.5244 25.7613 23.3385 26.1333 22.9907C26.5052 22.6429 26.7238 22.1616 26.7411 21.6527V8.8789C26.7411 5.78138 25.1436 3.82457 21.3274 3.82457ZM21.8641 17.8793V18.4045C21.8635 18.4462 21.8588 18.4877 21.8502 18.5285C21.8433 18.5658 21.8328 18.6022 21.8189 18.6375C21.7614 18.7887 21.6586 18.9186 21.5246 19.0092C21.3906 19.0999 21.2318 19.147 21.07 19.1441H19.6685C19.4651 19.1509 19.2673 19.0768 19.1186 18.9379C18.9699 18.7989 18.8825 18.6067 18.8756 18.4033V17.768V17.7448V16.0547V15.5226C18.884 15.32 18.972 15.129 19.1205 14.9909C19.2689 14.8529 19.4659 14.779 19.6685 14.7853H21.0712C21.2748 14.7787 21.4727 14.8531 21.6215 14.9922C21.7704 15.1312 21.858 15.3236 21.8653 15.5272L21.8641 17.8793Z" fill="white"/>
<path d="M34.5967 28.6668H33.4978V28.2958C33.4978 27.9214 33.6496 27.7011 34.0994 27.7011C34.267 27.703 34.4334 27.7295 34.5933 27.7799L34.8634 26.6265C34.5106 26.527 34.146 26.4759 33.7795 26.4746C33.5371 26.451 33.2925 26.481 33.063 26.5623C32.8335 26.6437 32.6247 26.7745 32.4513 26.9454C32.2779 27.1164 32.1442 27.3233 32.0596 27.5517C31.975 27.78 31.9416 28.0242 31.9618 28.2668V28.6668H31.1804V29.8202H31.9618V34.201H33.4966V29.8202H34.5956L34.5967 28.6668ZM37.94 34.3088C38.3133 34.3256 38.6859 34.2622 39.0327 34.123C39.3796 33.9838 39.6925 33.7719 39.9506 33.5016C40.2087 33.2313 40.4059 32.9089 40.529 32.5561C40.6521 32.2032 40.6982 31.8281 40.6642 31.4559C40.6995 31.0831 40.6543 30.7071 40.5317 30.3532C40.4092 29.9994 40.2122 29.6759 39.9539 29.4048C39.6957 29.1336 39.3823 28.9209 39.0349 28.7812C38.6874 28.6415 38.3141 28.578 37.94 28.5949C37.5659 28.578 37.1926 28.6415 36.8451 28.7812C36.4977 28.9209 36.1843 29.1336 35.9261 29.4048C35.6679 29.6759 35.4708 29.9994 35.3483 30.3532C35.2258 30.7071 35.1806 31.0831 35.2158 31.4559C35.1818 31.8281 35.2279 32.2032 35.351 32.5561C35.4741 32.9089 35.6713 33.2313 35.9294 33.5016C36.1875 33.7719 36.5005 33.9838 36.8473 34.123C37.1941 34.2622 37.5667 34.3256 37.94 34.3088ZM37.947 33.1194C37.1726 33.1194 36.7761 32.41 36.7761 31.4443C36.7761 30.4787 37.1726 29.7657 37.947 29.7657C38.7213 29.7657 39.1062 30.4787 39.1062 31.4443C39.1062 32.41 38.7074 33.1194 37.947 33.1194ZM41.7667 34.201H43.3015V31.071C43.2968 30.9162 43.3243 30.762 43.3823 30.6183C43.4404 30.4746 43.5276 30.3446 43.6386 30.2364C43.7496 30.1283 43.8818 30.0444 44.027 29.9901C44.1721 29.9358 44.3269 29.9123 44.4817 29.9211C44.7003 29.921 44.918 29.9486 45.1297 30.0034V28.6413C44.9713 28.6062 44.8096 28.5879 44.6474 28.5868C44.3399 28.5824 44.0402 28.6836 43.7982 28.8734C43.5562 29.0633 43.3867 29.3304 43.3178 29.6301H43.2598V28.6644H41.7667V34.201Z" fill="white"/>
</svg>
